<svg xmlns="http://www.w3.org/2000/svg" fill="none" viewBox="0 0 24 24" height="24" width="24">
<path fill="#474D57" d="M22 20H2V4H22V20ZM4 7H11V13H4V7ZM13 7H17V9H13V7Z" clip-rule="evenodd" fill-rule="evenodd"></path>
<path fill="#F0B90B" d="M7.5 12C8.60457 12 9.5 11.1046 9.5 10C9.5 8.89543 8.60457 8 7.5 8C6.39543 8 5.5 8.89543 5.5 10C5.5 11.1046 6.39543 12 7.5 12Z"></path>
<path fill="#F0B90B" d="M11 17V13H4V17H11Z"></path>
<path fill="#F0B90B" d="M13 11H20V13H13V11Z"></path>
<path fill="#F0B90B" d="M20 15H13V17H20V15Z"></path>
</svg>
